<svg width="20" height="16" viewBox="0 0 28 20" fill="none" xmlns="http://www.w3.org/2000/svg">
<g clip-path="url(#clip0)">
<mask id="mask0" mask-type="alpha" maskUnits="userSpaceOnUse" x="0" y="0" width="28" height="20">
<rect width="28" height="20" fill="white"/>
</mask>
<g mask="url(#mask0)">
<path fill-rule="evenodd" clip-rule="evenodd" d="M0 0H28V20H0V0Z" fill="#F7FCFF"/>
<path fill-rule="evenodd" clip-rule="evenodd" d="M0 12.2217V13.8883H28V12.2217H0Z" fill="#E31D1C"/>
<path fill-rule="evenodd" clip-rule="evenodd" d="M0 15.2783V16.945H28V15.2783H0Z" fill="#E31D1C"/>
<path fill-rule="evenodd" clip-rule="evenodd" d="M0 6.11133V7.77799H28V6.11133H0Z" fill="#E31D1C"/>
<path fill-rule="evenodd" clip-rule="evenodd" d="M0 18.3335V20.0002H28V18.3335H0Z" fill="#E31D1C"/>
<path fill-rule="evenodd" clip-rule="evenodd" d="M0 9.1665V10.8332H28V9.1665H0Z" fill="#E31D1C"/>
<path fill-rule="evenodd" clip-rule="evenodd" d="M0 0V1.66667H28V0H0Z" fill="#E31D1C"/>
<path fill-rule="evenodd" clip-rule="evenodd" d="M0 3.05518V4.72184H28V3.05518H0Z" fill="#E31D1C"/>
<rect width="17.5" height="10.8333" fill="#2E42A5"/>
<path fill-rule="evenodd" clip-rule="evenodd" d="M1.50678 2.44868L0.871632 2.87275L1.08606 2.11808L0.521937 1.63982H1.25876L1.50589 1.02393L1.79566 1.63982H2.42379L1.93026 2.11808L2.12132 2.87275L1.50678 2.44868ZM5.00677 2.44883L4.37163 2.8729L4.58606 2.11823L4.02193 1.63997H4.75876L5.00589 1.02408L5.29566 1.63997H5.92379L5.43025 2.11823L5.62132 2.8729L5.00677 2.44883ZM7.87163 2.8729L8.50677 2.44883L9.12132 2.8729L8.93025 2.11823L9.42379 1.63997H8.79566L8.50589 1.02408L8.25876 1.63997H7.52193L8.08606 2.11823L7.87163 2.8729ZM12.0068 2.44883L11.3716 2.8729L11.5861 2.11823L11.0219 1.63997H11.7588L12.0059 1.02408L12.2957 1.63997H12.9238L12.4303 2.11823L12.6213 2.8729L12.0068 2.44883ZM0.871607 6.20612L1.50675 5.78205L2.1213 6.20612L1.93023 5.45145L2.42376 4.97319H1.79564L1.50586 4.3573L1.25874 4.97319H0.521912L1.08604 5.45145L0.871607 6.20612ZM5.00675 5.78205L4.37161 6.20612L4.58604 5.45145L4.02191 4.97319H4.75874L5.00586 4.3573L5.29564 4.97319H5.92376L5.43023 5.45145L5.6213 6.20612L5.00675 5.78205ZM7.87161 6.20612L8.50675 5.78205L9.1213 6.20612L8.93023 5.45145L9.42376 4.97319H8.79564L8.50586 4.3573L8.25874 4.97319H7.52191L8.08604 5.45145L7.87161 6.20612ZM12.0068 5.78205L11.3716 6.20612L11.586 5.45145L11.0219 4.97319H11.7587L12.0059 4.3573L12.2956 4.97319H12.9238L12.4302 5.45145L12.6213 6.20612L12.0068 5.78205ZM0.871607 9.53946L1.50675 9.11538L2.1213 9.53946L1.93023 8.78478L2.42376 8.30652H1.79564L1.50586 7.69063L1.25874 8.30652H0.521912L1.08604 8.78478L0.871607 9.53946ZM5.00675 9.11538L4.37161 9.53946L4.58604 8.78478L4.02191 8.30652H4.75874L5.00586 7.69063L5.29564 8.30652H5.92376L5.43023 8.78478L5.6213 9.53946L5.00675 9.11538ZM7.87161 9.53946L8.50675 9.11538L9.1213 9.53946L8.93023 8.78478L9.42376 8.30652H8.79564L8.50586 7.69063L8.25874 8.30652H7.52191L8.08604 8.78478L7.87161 9.53946ZM12.0068 9.11538L11.3716 9.53946L11.586 8.78478L11.0219 8.30652H11.7587L12.0059 7.69063L12.2956 8.30652H12.9238L12.4302 8.78478L12.6213 9.53946L12.0068 9.11538ZM14.8716 2.8729L15.5068 2.44883L16.1213 2.8729L15.9303 2.11823L16.4238 1.63997H15.7957L15.5059 1.02408L15.2588 1.63997H14.5219L15.0861 2.11823L14.8716 2.8729ZM15.5068 5.78205L14.8716 6.20612L15.086 5.45145L14.5219 4.97319H15.2587L15.5059 4.3573L15.7956 4.97319H16.4238L15.9302 5.45145L16.1213 6.20612L15.5068 5.78205ZM14.8716 9.53946L15.5068 9.11538L16.1213 9.53946L15.9302 8.78478L16.4238 8.30652H15.7956L15.5059 7.69063L15.2587 8.30652H14.5219L15.086 8.78478L14.8716 9.53946ZM3.25675 4.11538L2.62161 4.53946L2.83604 3.78478L2.27191 3.30652H3.00874L3.25586 2.69063L3.54564 3.30652H4.17376L3.68023 3.78478L3.8713 4.53946L3.25675 4.11538ZM6.12161 4.53946L6.75675 4.11538L7.3713 4.53946L7.18023 3.78478L7.67376 3.30652H7.04564L6.75586 2.69063L6.50874 3.30652H5.77191L6.33604 3.78478L6.12161 4.53946ZM10.2568 4.11538L9.62161 4.53946L9.83604 3.78478L9.27191 3.30652H10.0087L10.2559 2.69063L10.5456 3.30652H11.1738L10.6802 3.78478L10.8713 4.53946L10.2568 4.11538ZM2.62161 7.87279L3.25675 7.44872L3.8713 7.87279L3.68023 7.11811L4.17376 6.63985H3.54564L3.25586 6.02396L3.00874 6.63985H2.27191L2.83604 7.11811L2.62161 7.87279ZM6.75675 7.44872L6.12161 7.87279L6.33604 7.11811L5.77191 6.63985H6.50874L6.75586 6.02396L7.04564 6.63985H7.67376L7.18023 7.11811L7.3713 7.87279L6.75675 7.44872ZM9.62161 7.87279L10.2568 7.44872L10.8713 7.87279L10.6802 7.11811L11.1738 6.63985H10.5456L10.2559 6.02396L10.0087 6.63985H9.27191L9.83604 7.11811L9.62161 7.87279ZM13.7568 4.11538L13.1216 4.53946L13.336 3.78478L12.7719 3.30652H13.5087L13.7559 2.69063L14.0456 3.30652H14.6738L14.1802 3.78478L14.3713 4.53946L13.7568 4.11538ZM13.1216 7.87279L13.7568 7.44872L14.3713 7.87279L14.1802 7.11811L14.6738 6.63985H14.0456L13.7559 6.02396L13.5087 6.63985H12.7719L13.336 7.11811L13.1216 7.87279Z" fill="#F7FCFF"/>
</g>
<rect width="28" height="20" fill="url(#paint0_linear)" style="mix-blend-mode:overlay"/>
</g>
<g clip-path="url(#clip1)">
<mask id="mask1" mask-type="alpha" maskUnits="userSpaceOnUse" x="14" y="0" width="14" height="20">
<rect x="14" width="14" height="20" fill="white"/>
</mask>
<g mask="url(#mask1)">
<path fill-rule="evenodd" clip-rule="evenodd" d="M0 0V20H28V0H0Z" fill="#2E42A5"/>
<mask id="mask2" mask-type="alpha" maskUnits="userSpaceOnUse" x="0" y="0" width="28" height="20">
<path fill-rule="evenodd" clip-rule="evenodd" d="M0 0V20H28V0H0Z" fill="white"/>
</mask>
<g mask="url(#mask2)">
<mask id="mask3" mask-type="alpha" maskUnits="userSpaceOnUse" x="0" y="0" width="28" height="20">
<rect width="28" height="20" fill="white"/>
</mask>
<g mask="url(#mask3)">
<path d="M-3.11774 18.571L3.04374 21.0527L28.1398 2.69805L31.3899 -0.989849L24.8011 -1.81931L14.565 6.09025L6.32595 11.4194L-3.11774 18.571Z" fill="white"/>
<path d="M-2.27423 20.3103L0.864758 21.7505L30.2228 -1.33196H25.8153L-2.27423 20.3103Z" fill="#F50100"/>
<path d="M31.1177 18.571L24.9563 21.0527L-0.139824 2.69805L-3.38986 -0.989849L3.19895 -1.81931L13.435 6.09025L21.674 11.4194L31.1177 18.571Z" fill="white"/>
<path d="M30.9075 19.8191L27.7685 21.2593L15.2676 11.3765L11.5613 10.2723L-3.70259 -0.977032H0.704918L15.9602 10.0053L20.0124 11.3293L30.9075 19.8191Z" fill="#F50100"/>
<mask id="path-24-inside-1" fill="white">
<path fill-rule="evenodd" clip-rule="evenodd" d="M17 -2H11V7H-2V13H11V22H17V13H31V7H17V-2Z"/>
</mask>
<path fill-rule="evenodd" clip-rule="evenodd" d="M17 -2H11V7H-2V13H11V22H17V13H31V7H17V-2Z" fill="#F50100"/>
<path d="M11 -2V-4H9V-2H11ZM17 -2H19V-4H17V-2ZM11 7V9H13V7H11ZM-2 7V5H-4V7H-2ZM-2 13H-4V15H-2V13ZM11 13H13V11H11V13ZM11 22H9V24H11V22ZM17 22V24H19V22H17ZM17 13V11H15V13H17ZM31 13V15H33V13H31ZM31 7H33V5H31V7ZM17 7H15V9H17V7ZM11 0H17V-4H11V0ZM13 7V-2H9V7H13ZM-2 9H11V5H-2V9ZM0 13V7H-4V13H0ZM11 11H-2V15H11V11ZM13 22V13H9V22H13ZM17 20H11V24H17V20ZM15 13V22H19V13H15ZM31 11H17V15H31V11ZM29 7V13H33V7H29ZM17 9H31V5H17V9ZM15 -2V7H19V-2H15Z" fill="white" mask="url(#path-24-inside-1)"/>
</g>
</g>
</g>
</g>
<defs>
<linearGradient id="paint0_linear" x1="14" y1="0" x2="14" y2="20" gradientUnits="userSpaceOnUse">
<stop stop-color="white" stop-opacity="0.7"/>
<stop offset="1" stop-opacity="0.3"/>
</linearGradient>
<clipPath id="clip0">
<path d="M0 2C0 0.895431 0.895431 0 2 0H15V20H2C0.89543 20 0 19.1046 0 18V2Z" fill="white"/>
</clipPath>
<clipPath id="clip1">
<path d="M14 0H26C27.1046 0 28 0.895431 28 2V18C28 19.1046 27.1046 20 26 20H14V0Z" fill="white"/>
</clipPath>
</defs>
</svg>
