<svg width="20" height="20" viewBox="0 0 20 20" fill="none" xmlns="http://www.w3.org/2000/svg">
<path fill-rule="evenodd" clip-rule="evenodd" d="M17.4923 16.1933L13.2334 11.9328C13.9968 10.8916 14.4058 9.63276 14.4001 8.34167C14.3855 4.97151 11.6596 2.2417 8.28949 2.22223C6.6767 2.21493 5.12796 2.85296 3.98831 3.99417C2.84866 5.13539 2.21276 6.685 2.22227 8.29779C2.23684 11.6683 4.96294 14.3983 8.33338 14.4178C9.62973 14.4234 10.8931 14.0097 11.9351 13.2383L11.9395 13.235L16.1945 17.4922C16.4245 17.7336 16.7673 17.8313 17.0901 17.7475C17.4128 17.6636 17.6647 17.4115 17.7483 17.0887C17.8318 16.7659 17.7338 16.4232 17.4923 16.1933ZM8.32893 13.1978C5.63272 13.1823 3.45188 10.9984 3.44004 8.30222C3.43277 7.01215 3.94153 5.77272 4.85308 4.85981C5.76462 3.94691 7.0033 3.4363 8.29338 3.44166C10.9896 3.45717 13.1704 5.64099 13.1823 8.33722C13.1895 9.62728 12.6808 10.8667 11.7692 11.7796C10.8577 12.6925 9.619 13.2031 8.32893 13.1978Z" fill="#f65261"/>
<mask id="mask0" mask-type="alpha" maskUnits="userSpaceOnUse" x="2" y="2" width="16" height="16">
<path fill-rule="evenodd" clip-rule="evenodd" d="M17.4923 16.1933L13.2334 11.9328C13.9968 10.8916 14.4058 9.63276 14.4001 8.34167C14.3855 4.97151 11.6596 2.2417 8.28949 2.22223C6.6767 2.21493 5.12796 2.85296 3.98831 3.99417C2.84866 5.13539 2.21276 6.685 2.22227 8.29779C2.23684 11.6683 4.96294 14.3983 8.33338 14.4178C9.62973 14.4234 10.8931 14.0097 11.9351 13.2383L11.9395 13.235L16.1945 17.4922C16.4245 17.7336 16.7673 17.8313 17.0901 17.7475C17.4128 17.6636 17.6647 17.4115 17.7483 17.0887C17.8318 16.7659 17.7338 16.4232 17.4923 16.1933ZM8.32893 13.1978C5.63272 13.1823 3.45188 10.9984 3.44004 8.30222C3.43277 7.01215 3.94153 5.77272 4.85308 4.85981C5.76462 3.94691 7.0033 3.4363 8.29338 3.44166C10.9896 3.45717 13.1704 5.64099 13.1823 8.33722C13.1895 9.62728 12.6808 10.8667 11.7692 11.7796C10.8577 12.6925 9.619 13.2031 8.32893 13.1978Z" fill="#f65261"/>
</mask>
<g mask="url(#mask0)">
<rect width="20" height="20" fill="#f65261"/>
</g>
</svg>
